<svg t="1739013749978" class="icon" viewBox="0 0 1024 1024" version="1.1" xmlns="http://www.w3.org/2000/svg" p-id="2803"
    width="200" height="200">
    <path
        d="M696.951542 471.400881H553.726872V328.176211q0-16.9163-11.841409-28.757709T513.127753 287.577093q-16.9163 0-29.321586 11.841409T471.400881 328.176211v143.22467H328.176211q-16.9163 0-28.757709 12.405286T287.577093 513.127753q0 16.9163 11.841409 28.75771T328.176211 553.726872h143.22467v143.22467q0 16.9163 12.405286 29.321586t29.321586 12.405286q16.9163 0 28.75771-12.405286t11.841409-29.321586V553.726872h143.22467q16.9163 0 28.757709-11.841409T737.550661 513.127753q0-16.9163-11.84141-29.321586T696.951542 471.400881zM512 0q-138.713656 0-258.255507 71.048458-115.030837 67.665198-183.823788 182.696035-69.920705 119.54185-69.920705 258.819384T69.920705 770.255507q68.792952 116.15859 183.823788 183.823788 119.54185 69.920705 258.255507 69.920705t258.255507-69.920705q116.15859-67.665198 183.823788-183.823788 69.920705-118.414097 69.920705-257.69163T954.079295 253.744493Q886.414097 138.713656 770.255507 71.048458 650.713656 0 512 0z m0 960.845815q-120.669604 0-225.550661-62.026432-101.497797-58.643172-161.268722-160.140969-60.898678-104.881057-60.898679-226.114537T125.180617 286.449339q59.770925-101.497797 161.268722-160.140969 104.881057-62.026432 226.114538-62.026432T738.678414 126.30837q101.497797 58.643172 160.140969 160.140969 62.026432 104.881057 62.026432 226.114538T898.819383 738.678414q-58.643172 101.497797-160.140969 160.140969-104.881057 62.026432-226.678414 62.026432z m0 0z"
        p-id="2804"></path>
</svg>